<?xml version="1.0" standalone="no"?>
<!DOCTYPE svg PUBLIC "-//W3C//DTD SVG 20010904//EN"
 "http://www.w3.org/TR/2001/REC-SVG-20010904/DTD/svg10.dtd">
<svg version="1.0" xmlns="http://www.w3.org/2000/svg"
 width="16.000000pt" height="16.000000pt" viewBox="0 0 16.000000 16.000000"
 preserveAspectRatio="xMidYMid meet">
<metadata>
Created by potrace 1.11, written by Peter Selinger 2001-2013
</metadata>
<g transform="translate(0.000000,16.000000) scale(0.005333,-0.005333)"
fill="#000000" stroke="none">
<path d="M0 2323 c0 -373 4 -672 8 -665 7 10 14 10 37 -2 15 -8 34 -12 42 -9
19 8 36 -18 20 -30 -7 -5 -1 -6 15 -3 15 3 30 1 33 -5 4 -6 13 -8 21 -5 8 3
14 1 14 -4 0 -6 -6 -10 -14 -10 -8 0 -17 -6 -20 -12 -3 -9 -9 -7 -20 6 -16 20
-16 20 -16 0 -1 -18 -1 -18 -14 -1 -14 18 -32 24 -21 7 3 -5 3 -10 -2 -11 -45
-4 -63 -3 -63 3 0 4 -4 8 -10 8 -7 0 -10 -141 -10 -403 l0 -403 26 -2 c14 -1
34 -7 45 -12 15 -8 19 -7 19 4 0 10 -6 13 -15 10 -8 -4 -15 -2 -15 3 0 13 40
13 40 0 1 -7 10 13 20 43 11 30 27 69 35 87 8 17 15 35 15 41 0 5 10 42 23 83
13 41 31 119 41 174 24 140 81 337 121 421 31 65 153 214 175 214 5 0 51 28
102 63 77 52 120 72 239 112 174 59 235 85 290 125 23 16 48 30 55 30 7 0 21
12 32 28 l21 27 10 -28 c13 -35 14 -84 2 -91 -23 -15 -50 -137 -57 -261 -4
-71 -7 -143 -5 -160 1 -16 3 -104 4 -195 1 -156 1 -161 10 -83 6 58 12 81 20
76 7 -4 6 0 -1 9 -8 10 -12 35 -10 63 l3 46 33 -51 c25 -37 43 -90 72 -203 21
-84 44 -163 52 -177 18 -34 51 -84 59 -90 4 -3 16 -20 27 -38 l20 -34 33 46
c19 25 43 58 54 73 11 15 32 64 48 108 15 44 35 96 44 115 27 58 63 153 64
169 0 9 14 43 30 76 l29 60 -5 -159 c-6 -147 -8 -161 -30 -195 -14 -19 -25
-41 -25 -47 0 -6 -7 -18 -16 -25 -20 -16 -36 -57 -28 -70 8 -14 29 11 53 64
33 71 41 67 43 -20 l1 -78 7 105 c4 58 10 114 15 125 6 16 5 17 -4 5 -9 -11
-10 10 -5 85 4 55 10 109 14 120 4 11 6 33 5 48 -4 36 3 34 19 -5 12 -28 13
-17 12 104 0 75 -4 134 -8 131 -5 -2 -8 7 -8 21 0 14 4 27 8 30 4 2 3 43 -2
91 -12 106 -4 118 50 81 21 -14 44 -26 50 -26 7 0 38 -13 69 -30 31 -16 66
-30 77 -30 20 0 84 -40 129 -81 14 -13 47 -41 74 -62 58 -44 171 -152 220
-210 19 -22 41 -42 49 -43 7 -1 23 -5 35 -9 11 -3 21 -2 21 3 0 6 8 8 18 6 16
-5 19 -24 13 -89 -2 -18 -3 -18 -15 4 -13 24 -14 24 -24 4 -9 -15 -7 -40 8
-100 33 -139 51 -273 60 -448 9 -157 20 -240 41 -290 4 -11 10 -53 14 -94 4
-40 11 -84 17 -96 8 -19 7 -27 -5 -40 -20 -20 -149 -53 -242 -62 -63 -7 -66
-8 -30 -13 32 -4 41 -10 43 -28 2 -12 -1 -22 -6 -22 -19 0 -21 -41 -2 -60 17
-17 17 -18 -14 -25 l-31 -7 33 -9 c28 -8 32 -14 32 -44 0 -18 -4 -37 -10 -40
-5 -3 -10 -16 -10 -29 0 -13 -9 -31 -20 -41 -11 -10 -20 -23 -20 -28 0 -5 -8
-16 -17 -23 -15 -11 4 -13 124 -14 129 0 143 2 152 19 10 17 8 18 -24 11 -33
-7 -35 -6 -35 17 0 19 3 23 13 16 6 -6 19 -11 27 -11 29 -2 50 -8 62 -20 8 -8
9 -12 1 -12 -6 0 -14 6 -16 13 -3 6 -6 2 -6 -10 -1 -23 1 -23 119 -23 l120 0
0 744 0 745 -22 4 -23 4 23 2 c22 1 22 2 22 171 0 144 -2 170 -15 170 -8 0
-15 -7 -15 -15 0 -8 -4 -15 -10 -15 -5 0 -10 9 -10 20 0 17 -3 18 -26 10 -29
-11 -48 -4 -41 14 4 9 -3 12 -21 9 -15 -2 -22 -1 -15 3 7 3 9 12 6 20 -7 18 8
18 33 -1 22 -17 38 -20 29 -5 -6 10 20 15 63 11 l22 -2 0 556 0 555 -1500 0
-1500 0 0 -677z m1220 107 c0 -5 -2 -10 -4 -10 -3 0 -8 5 -11 10 -3 6 -1 10 4
10 6 0 11 -4 11 -10z m-20 -55 c0 -17 -2 -17 -10 -5 -5 8 -10 24 -10 35 0 17
2 17 10 5 5 -8 10 -24 10 -35z m45 5 c-3 -5 -10 -10 -16 -10 -5 0 -9 5 -9 10
0 6 7 10 16 10 8 0 12 -4 9 -10z m-930 -30 c3 -5 -1 -10 -9 -10 -9 0 -16 5
-16 10 0 6 4 10 9 10 6 0 13 -4 16 -10z m1231 -132 c12 -13 -7 -30 -20 -19 -7
6 -16 8 -19 4 -4 -3 -7 -2 -7 4 0 20 29 27 46 11z m44 -9 c11 -20 12 -20 26
-2 12 16 15 16 24 3 17 -25 12 -30 -33 -30 -50 0 -57 4 -50 31 7 25 19 24 33
-2z m110 -5 c0 -8 -5 -12 -10 -9 -6 4 -8 11 -5 16 9 14 15 11 15 -7z m-413
-156 c-3 -7 -5 -2 -5 12 0 14 2 19 5 13 2 -7 2 -19 0 -25z m-10 -70 c-3 -24
-10 -54 -16 -68 -10 -24 -10 -23 -9 10 1 34 18 100 26 100 2 0 2 -19 -1 -42z
m1546 -42 c8 5 8 2 0 -7 -7 -7 -13 -21 -13 -31 0 -10 -4 -18 -10 -18 -12 0
-12 15 -3 50 4 13 8 19 11 12 2 -7 9 -9 15 -6z m-233 -6 c0 -5 -2 -10 -4 -10
-3 0 -8 5 -11 10 -3 6 -1 10 4 10 6 0 11 -4 11 -10z m287 -16 c-3 -3 -12 -4
-19 -1 -8 3 -5 6 6 6 11 1 17 -2 13 -5z m-77 -54 c0 -5 -5 -10 -11 -10 -5 0
-7 5 -4 10 3 6 8 10 11 10 2 0 4 -4 4 -10z m-95 -318 c11 -24 38 -31 29 -8 -7
19 8 27 26 15 11 -8 12 -12 3 -15 -7 -3 -11 -11 -9 -17 1 -7 1 -9 -1 -5 -3 4
-21 1 -40 -7 -41 -17 -52 -13 -33 11 11 13 11 19 1 36 -10 16 -10 19 1 16 7
-2 17 -14 23 -26z m128 -16 c12 2 15 1 7 -2 -8 -4 -22 -11 -32 -15 -13 -7 -15
-5 -10 13 3 13 7 17 9 11 2 -6 14 -9 26 -7z m72 -2 c8 -9 22 -13 30 -10 9 3
15 -1 15 -10 0 -11 -10 -14 -40 -12 -35 2 -39 5 -38 25 3 27 11 29 33 7z m38
-51 c-13 -2 -33 -2 -45 0 -13 2 -3 4 22 4 25 0 35 -2 23 -4z m0 -620 c-13 -2
-33 -2 -45 0 -13 2 -3 4 22 4 25 0 35 -2 23 -4z m-2893 -47 c0 -11 -19 -15
-25 -6 -3 5 1 10 9 10 9 0 16 -2 16 -4z m2772 -484 c7 -26 -3 -83 -13 -76 -5
3 -9 0 -9 -5 0 -6 -6 -11 -14 -11 -8 0 -16 -9 -18 -19 -2 -16 -5 -17 -15 -6
-10 11 -5 18 23 34 34 20 35 23 29 61 -7 40 8 58 17 22z m-52 -12 c0 -5 -2
-10 -4 -10 -3 0 -8 5 -11 10 -3 6 -1 10 4 10 6 0 11 -4 11 -10z m157 -47 c-3
-3 -10 -2 -16 2 -7 4 -7 10 2 20 10 11 13 11 15 -2 2 -8 1 -17 -1 -20z m28 17
c3 -5 1 -10 -4 -10 -6 0 -11 5 -11 10 0 6 2 10 4 10 3 0 8 -4 11 -10z m-261
-15 c-4 -8 -8 -15 -10 -15 -2 0 -4 7 -4 15 0 8 4 15 10 15 5 0 7 -7 4 -15z
m28 -58 c-4 -23 -2 -26 14 -20 16 6 17 5 6 -9 -10 -13 -10 -17 0 -22 10 -5 10
-7 1 -12 -7 -3 -13 -17 -13 -30 0 -22 -4 -25 -27 -22 -16 2 -27 6 -25 11 1 4
2 23 2 43 0 21 4 33 10 29 6 -3 10 0 10 9 0 8 -6 16 -12 19 -10 3 -8 9 5 24 9
11 17 28 18 39 1 15 3 13 9 -6 4 -14 5 -37 2 -53z m157 59 c7 -8 23 -17 36
-20 14 -4 25 -11 25 -16 0 -14 -14 -12 -28 2 -10 10 -15 10 -22 -2 -15 -23
-12 -34 5 -20 12 10 15 10 15 -3 0 -8 -7 -17 -15 -21 -8 -3 -15 -1 -15 3 0 5
-9 7 -20 4 -14 -4 -20 0 -20 12 0 10 5 15 13 12 7 -3 19 3 25 14 10 15 8 21
-10 34 -13 8 -17 15 -11 15 6 0 16 -6 22 -14z m-21 -24 c2 -7 -2 -10 -12 -6
-9 3 -16 11 -16 16 0 13 23 5 28 -10z m101 -75 c-2 -1 -12 -9 -21 -16 -15 -12
-18 -11 -18 3 0 10 8 16 22 16 12 0 19 -1 17 -3z m-55 -39 c7 -5 5 -8 -5 -8
-18 0 -32 24 -21 35 4 3 8 0 11 -7 2 -7 9 -16 15 -20z m-71 -15 c-8 -3 -9 -12
-3 -29 7 -18 6 -24 -5 -24 -10 0 -12 6 -8 18 6 15 5 15 -10 3 -12 -10 -17 -10
-17 -1 0 14 43 51 50 43 3 -3 0 -8 -7 -10z m-53 -3 c0 -5 -2 -10 -4 -10 -3 0
-8 5 -11 10 -3 6 -1 10 4 10 6 0 11 -4 11 -10z m83 -60 c3 -11 1 -18 -4 -14
-5 3 -9 12 -9 20 0 20 7 17 13 -6z"/>
<path d="M950 1703 c0 -5 5 -15 10 -23 7 -12 12 -12 22 -2 9 9 8 12 -7 13 -19
0 -19 1 0 9 19 8 19 9 -2 9 -13 1 -23 -2 -23 -6z"/>
<path d="M1000 1690 c0 -5 7 -10 16 -10 8 0 12 5 9 10 -3 6 -10 10 -16 10 -5
0 -9 -4 -9 -10z"/>
<path d="M1044 1663 c1 -35 38 -78 49 -57 15 27 36 15 42 -23 3 -21 10 -51 14
-68 l9 -30 1 28 c1 15 6 27 11 27 15 0 12 15 -10 64 -29 60 -56 86 -89 86 -24
0 -28 -4 -27 -27z"/>
<path d="M978 1663 c-16 -2 -28 -9 -28 -14 0 -5 -6 -9 -13 -9 -9 0 -12 -10 -9
-30 2 -16 9 -30 14 -30 6 0 8 9 5 21 -4 15 -2 19 8 15 8 -3 16 0 19 7 2 7 5
-1 6 -18 2 -28 3 -28 11 10 5 21 15 43 22 47 6 4 8 7 2 6 -5 0 -22 -3 -37 -5z"/>
<path d="M1970 1653 c-24 -9 -70 -55 -70 -71 0 -14 27 -41 42 -42 4 0 21 24
38 53 21 36 30 46 30 31 0 -30 27 -51 43 -35 9 9 9 14 -1 20 -9 5 -5 11 13 19
14 7 23 17 20 22 -6 10 -89 12 -115 3z"/>
<path d="M935 1559 c-4 -6 -5 -12 -2 -15 2 -3 7 2 10 11 7 17 1 20 -8 4z"/>
<path d="M2610 1560 c0 -13 18 -22 24 -11 3 5 -1 11 -9 15 -8 3 -15 1 -15 -4z"/>
<path d="M1212 1280 c0 -19 2 -27 5 -17 2 9 2 25 0 35 -3 9 -5 1 -5 -18z"/>
<path d="M1212 1220 c0 -14 2 -19 5 -12 2 6 2 18 0 25 -3 6 -5 1 -5 -13z"/>
<path d="M700 1135 c0 -11 23 -86 36 -119 6 -15 4 -18 -9 -13 -8 3 -21 -1 -28
-10 -11 -13 -10 -18 6 -29 17 -13 18 -18 6 -49 -7 -19 -9 -44 -6 -55 3 -11 3
-25 -2 -32 -12 -19 -31 -118 -21 -112 11 7 10 -34 -3 -116 -9 -57 -8 -73 5
-99 9 -16 16 -40 15 -53 0 -13 2 -61 4 -108 5 -97 2 -110 -24 -110 -31 0 -18
-33 39 -95 29 -32 49 -62 45 -68 -3 -7 -3 -9 2 -5 4 4 26 -8 48 -27 l41 -35
218 0 c186 0 217 2 206 14 -9 10 -15 11 -20 2 -5 -7 -8 -5 -8 7 0 10 -8 17
-20 17 -12 0 -35 7 -52 16 -27 14 -29 18 -15 26 23 13 21 24 -5 32 -20 5 -21
8 -7 16 8 5 29 7 45 5 16 -2 32 -4 36 -4 5 -1 7 -7 5 -13 -1 -9 8 -12 28 -10
47 5 82 4 207 -3 85 -6 118 -11 122 -22 4 -10 1 -11 -14 -3 -10 5 -25 10 -33
10 -18 0 -16 -28 2 -40 8 -4 10 -13 7 -19 -4 -6 -1 -11 8 -11 8 0 16 -6 19
-12 3 -10 10 -10 32 2 22 12 29 12 32 3 4 -10 63 -13 256 -12 l252 0 48 64
c26 36 47 72 47 82 0 10 5 25 11 33 8 11 9 7 5 -17 -3 -19 -1 -33 4 -33 6 0
10 9 10 21 0 11 4 17 10 14 6 -3 10 -1 10 4 0 6 -5 11 -12 11 -9 0 -9 3 0 12
15 15 16 31 0 22 -8 -5 -9 2 -5 25 4 20 3 30 -3 26 -6 -3 -10 -1 -10 4 0 6 6
11 13 11 8 0 8 3 -2 9 -26 17 2 59 41 64 25 3 20 4 -17 5 l-50 2 -2 -35 c-3
-74 -6 -88 -22 -104 -18 -18 -51 -16 -51 3 0 7 7 27 16 44 16 34 16 80 -1 72
-5 -3 -9 -9 -7 -15 2 -7 0 -7 -6 0 -5 6 -12 24 -15 40 -4 24 1 37 24 63 29 32
31 33 44 15 13 -17 14 -16 8 7 -4 14 -12 34 -20 46 -7 12 -15 52 -18 89 -2 38
-7 88 -11 111 -5 36 -3 42 16 47 19 5 20 8 10 27 -9 16 -8 25 1 36 9 11 7 14
-11 14 -22 0 -23 3 -17 60 5 62 39 121 65 112 7 -2 12 1 12 8 0 6 -4 8 -10 5
-6 -3 -10 2 -10 11 0 16 -1 16 -15 -2 -8 -10 -15 -14 -15 -9 -1 17 -40 -76
-40 -96 0 -10 -7 -19 -15 -19 -10 0 -15 -10 -15 -27 -1 -27 -1 -27 -15 -9 -8
11 -15 35 -15 53 0 44 -35 61 -65 32 -19 -18 -19 -20 -1 -50 18 -30 18 -31
-10 -70 -15 -22 -30 -42 -34 -44 -4 -2 -2 -26 5 -52 17 -65 2 -104 -36 -96
-14 3 -30 0 -33 -6 -4 -6 -2 -11 5 -11 8 0 9 -3 0 -14 -14 -17 4 -33 47 -42
38 -8 44 -40 12 -67 -11 -9 -20 -26 -20 -38 0 -15 -5 -19 -15 -15 -10 3 -15
-1 -15 -13 0 -28 -26 -47 -45 -31 -15 12 -17 10 -19 -19 -1 -8 -16 -19 -34
-23 -32 -8 -41 -21 -23 -33 5 -3 13 -1 16 5 4 6 15 8 24 5 10 -3 24 1 31 10
10 12 16 13 26 4 27 -22 10 -69 -25 -69 -9 0 -25 -7 -35 -15 -19 -14 -18 -15
5 -23 l24 -9 -25 -9 c-14 -5 -32 -9 -40 -9 -8 0 -14 -8 -12 -17 1 -10 -10 -24
-27 -34 -17 -10 -28 -21 -26 -25 8 -12 -18 -26 -59 -34 -36 -6 -38 -5 -27 9 8
9 19 16 25 16 7 0 21 7 31 15 72 54 67 44 70 140 3 87 -16 311 -29 353 -4 12
0 34 9 52 17 32 13 66 -5 55 -5 -3 -10 -16 -10 -28 -1 -22 -1 -22 -15 -3 -8
11 -15 27 -15 37 0 21 -37 106 -50 114 -14 9 -13 6 17 -66 14 -35 30 -82 34
-104 4 -22 12 -58 18 -80 20 -76 30 -161 30 -255 0 -168 0 -165 -34 -165 -17
0 -55 -8 -85 -18 -31 -9 -80 -19 -110 -21 -35 -2 -58 -10 -66 -20 -16 -23 -41
-10 -48 25 -3 17 -10 28 -16 24 -6 -4 -7 -11 -4 -17 12 -19 -57 0 -73 20 -8 9
-12 12 -9 6 3 -7 -1 -15 -10 -18 -22 -8 -31 -7 -17 2 23 15 -3 31 -55 35 -92
7 -66 14 55 15 87 1 121 5 131 16 18 17 6 39 -16 32 -10 -3 -24 -1 -32 4 -8 5
-10 10 -4 10 6 0 21 9 33 19 l22 19 -52 7 c-34 5 -47 10 -38 16 7 4 10 11 7
14 -11 11 -28 -5 -28 -26 0 -10 7 -19 15 -19 12 0 10 -5 -5 -20 -12 -12 -18
-26 -14 -33 5 -9 4 -9 -5 -1 -6 6 -13 25 -14 42 -2 29 -5 32 -36 32 -19 0 -39
-6 -45 -14 -10 -13 -46 -20 -83 -17 -18 1 -17 142 2 257 8 50 30 133 50 184
39 103 46 151 10 75 -13 -27 -24 -44 -24 -37 -1 6 -7 12 -15 12 -19 0 -25 -20
-13 -46 6 -15 4 -43 -6 -90 -15 -68 -33 -230 -28 -249 1 -5 0 -29 -4 -52 -6
-39 -9 -43 -36 -43 -27 0 -34 -8 -30 -38 1 -7 -12 -15 -29 -18 -16 -4 -30 -11
-30 -16 0 -6 -10 -8 -22 -5 -13 3 -32 -1 -42 -9 -28 -20 -53 -18 -66 6 -9 17
-7 24 12 41 44 37 78 51 94 38 18 -15 67 15 62 38 -6 30 -35 39 -57 18 -26
-23 -40 -12 -22 17 12 19 11 23 -5 35 -10 7 -27 13 -37 13 -18 0 -18 2 4 19
13 10 31 21 39 24 14 5 -2 9 -54 11 -26 2 -33 26 -8 26 11 0 22 7 26 15 4 11
-2 15 -22 16 -15 1 -31 1 -36 0 -19 -4 -66 11 -66 21 0 6 9 8 20 5 15 -4 20 0
20 14 0 10 5 19 10 19 23 0 8 19 -17 22 -20 2 -29 9 -31 26 -2 12 1 22 7 22 6
0 8 7 4 16 -3 8 -12 13 -19 10 -7 -3 -16 -1 -19 4 -3 5 3 11 13 14 18 6 49 73
38 84 -3 3 -13 -3 -21 -14 -14 -18 -14 -18 -15 3 0 12 -12 34 -26 48 -34 34
-28 59 14 63 41 4 41 15 -2 32 l-34 13 3 80 c2 59 -1 84 -11 94 -12 12 -14 12
-14 -4 -1 -14 -4 -13 -15 7 -8 14 -14 21 -15 15z m1287 -771 c-3 -3 -12 -4
-19 -1 -8 3 -5 6 6 6 11 1 17 -2 13 -5z m-753 -202 c2 -4 -4 -9 -15 -9 -11 -1
-17 2 -14 8 7 11 22 12 29 1z m426 -77 c-7 -8 -19 -15 -26 -15 -8 0 -14 7 -14
15 0 10 10 15 26 15 22 0 25 -2 14 -15z m-13 -40 c0 -8 -6 -15 -14 -15 -14 0
-17 12 -6 23 11 11 20 8 20 -8z"/>
<path d="M1203 1085 c0 -22 2 -30 4 -17 2 12 2 30 0 40 -3 9 -5 -1 -4 -23z"/>
<path d="M1794 880 c0 -69 1 -97 3 -62 2 34 2 90 0 125 -2 34 -3 6 -3 -63z"/>
<path d="M1193 935 c0 -33 2 -45 4 -27 2 18 2 45 0 60 -2 15 -4 0 -4 -33z"/>
<path d="M2085 980 c3 -5 13 -10 21 -10 8 0 14 5 14 10 0 6 -9 10 -21 10 -11
0 -17 -4 -14 -10z"/>
<path d="M1257 914 c-4 -4 -7 -17 -7 -28 1 -19 1 -20 11 -3 11 19 8 43 -4 31z"/>
<path d="M1181 824 c0 -11 3 -14 6 -6 3 7 2 16 -1 19 -3 4 -6 -2 -5 -13z"/>
<path d="M920 810 c-12 -8 -11 -10 8 -10 12 0 22 5 22 10 0 13 -11 13 -30 0z"/>
<path d="M1836 783 c4 -16 12 -31 18 -35 6 -4 7 -10 3 -14 -8 -8 11 -34 25
-34 15 0 -1 71 -19 93 -23 25 -34 21 -27 -10z"/>
<path d="M13 758 c-4 -7 -9 -58 -10 -113 -1 -55 1 -94 5 -88 11 17 82 -3 82
-22 0 -18 26 -20 34 -2 4 6 4 2 2 -10 -4 -21 -1 -24 21 -22 15 0 19 -57 11
-151 -12 -148 -15 -163 -39 -215 -5 -11 -7 -12 -5 -3 3 9 -1 22 -9 28 -11 9
-12 7 -8 -9 3 -12 1 -21 -6 -21 -6 0 -11 -7 -11 -15 0 -8 -11 -17 -25 -21 -14
-3 -25 -11 -25 -16 0 -6 -6 -5 -15 2 -13 11 -15 6 -15 -34 0 -45 1 -46 31 -46
17 0 28 4 24 10 -3 5 -1 10 4 10 6 0 11 -4 11 -9 0 -6 75 -10 180 -11 99 0
180 2 180 5 0 11 -75 75 -104 89 -33 16 -76 52 -76 64 0 4 -15 12 -32 17 -23
7 -32 15 -30 28 2 9 -4 20 -13 23 -32 13 -15 40 22 35 7 -1 17 8 24 21 10 19
8 25 -15 44 -30 27 -34 39 -8 30 14 -5 13 -3 -3 9 -19 15 -19 17 -2 64 9 27
15 55 13 63 -13 38 -13 87 0 92 8 3 77 -15 155 -40 l140 -45 -28 -22 c-37 -28
-44 -39 -33 -52 5 -6 5 -17 0 -24 -9 -15 7 -61 22 -61 4 0 27 -14 50 -30 49
-36 50 -35 72 65 9 39 18 79 21 90 4 18 -3 22 -53 34 -74 17 -267 82 -361 121
-41 17 -82 28 -90 25 -9 -3 -12 -3 -9 1 4 3 0 13 -8 21 -8 9 -13 22 -10 29 3
8 9 21 12 29 4 9 -1 17 -10 21 -21 8 -35 -4 -17 -15 10 -7 9 -9 -3 -14 -17 -7
-41 27 -31 43 3 6 4 10 1 10 -3 0 -8 -6 -13 -12z m122 -128 c3 -6 -1 -7 -9 -4
-18 7 -21 14 -7 14 6 0 13 -4 16 -10z m-52 -45 c6 -6 10 -6 14 3 6 15 23 6 23
-12 0 -11 -10 -12 -51 -7 -4 1 -9 8 -13 16 -6 16 14 16 27 0z m88 -528 c12
-21 11 -21 -8 -4 -11 9 -28 17 -38 17 -17 0 -17 1 -2 18 10 10 17 29 18 43 1
17 4 13 10 -14 5 -21 14 -48 20 -60z"/>
<path d="M1975 700 c3 -5 8 -10 11 -10 2 0 4 5 4 10 0 6 -5 10 -11 10 -5 0 -7
-4 -4 -10z"/>
<path d="M1872 638 c6 -18 28 -21 28 -4 0 9 -7 16 -16 16 -9 0 -14 -5 -12 -12z"/>
<path d="M37 523 c-13 -12 -7 -23 11 -22 10 0 12 3 4 6 -6 2 -10 9 -6 14 6 10
0 12 -9 2z"/>
<path d="M1027 493 c-4 -3 -7 -11 -7 -17 0 -6 5 -5 12 2 6 6 9 14 7 17 -3 3
-9 2 -12 -2z"/>
<path d="M1837 393 c-4 -3 -7 -11 -7 -17 0 -6 5 -5 12 2 6 6 9 14 7 17 -3 3
-9 2 -12 -2z"/>
<path d="M1685 348 c-16 -11 -21 -17 -10 -13 11 4 29 8 40 10 11 1 23 3 28 4
4 0 7 6 7 11 0 16 -33 10 -65 -12z"/>
<path d="M2393 363 c9 -2 23 -2 30 0 6 3 -1 5 -18 5 -16 0 -22 -2 -12 -5z"/>
<path d="M1070 344 c0 -13 8 -19 25 -20 15 -1 25 3 25 12 0 8 -4 14 -9 14 -5
0 -16 3 -25 6 -11 4 -16 0 -16 -12z"/>
<path d="M1420 356 c0 -9 30 -14 35 -6 4 6 -3 10 -14 10 -12 0 -21 -2 -21 -4z"/>
<path d="M1730 283 c0 -10 4 -14 8 -8 4 6 11 13 16 18 5 4 2 7 -7 7 -10 0 -17
-8 -17 -17z"/>
<path d="M7 245 c-9 -47 -7 -105 3 -105 5 0 15 12 22 28 9 16 20 26 31 24 11
-2 17 3 16 15 0 11 -3 13 -6 5 -2 -6 -9 -9 -14 -6 -6 3 -16 1 -24 -6 -11 -9
-12 -7 -9 7 3 10 1 29 -4 43 l-9 25 -6 -30z"/>
<path d="M224 249 c-11 -19 17 -59 43 -59 13 0 23 5 23 11 0 6 7 9 15 5 8 -3
15 -1 15 4 0 6 -7 10 -16 10 -8 0 -12 5 -9 10 4 6 -7 10 -25 10 -18 0 -29 4
-25 10 3 6 2 10 -4 10 -5 0 -13 -5 -17 -11z"/>
<path d="M1550 235 c0 -8 7 -15 15 -15 9 0 12 6 9 15 -4 8 -10 15 -15 15 -5 0
-9 -7 -9 -15z"/>
<path d="M90 206 c0 -2 7 -7 16 -10 8 -3 12 -2 9 4 -6 10 -25 14 -25 6z"/>
<path d="M20 130 c0 -5 7 -10 16 -10 8 0 12 5 9 10 -3 6 -10 10 -16 10 -5 0
-9 -4 -9 -10z"/>
<path d="M1430 59 c0 -5 5 -7 10 -4 6 3 10 8 10 11 0 2 -4 4 -10 4 -5 0 -10
-5 -10 -11z"/>
<path d="M1337 13 c-3 -5 6 -9 20 -10 19 -1 22 1 12 8 -17 11 -26 11 -32 2z"/>
</g>
</svg>
